<?xml version="1.0" encoding="UTF-8"?><svg xmlns="http://www.w3.org/2000/svg" viewBox="0 0 16 16"><defs><style>.e{fill:#4d2d7c;stroke:#4d2a7c;stroke-linecap:round;stroke-linejoin:round;stroke-width:.59px;}.f{fill:#e6ddee;}.g{fill:#e6dded;}</style></defs><g id="a"/><g id="b"/><g id="c"><g id="d"><path class="e" d="M14.22,9.83l-6.21,5.92L1.78,9.81c-1.05-1-1.05-2.61,0-3.61L8.01,.25l6.21,5.92c1.06,1.01,1.06,2.65,0,3.65Z"/><g><path class="g" d="M6.52,10.92c-.63-.04-.93-.19-.93-.3,0-.23,.25-.41,.58-.51v.03c0,.32,.13,.6,.35,.78Zm1.98-.27c.17-.19,.32-.43,.43-.73l.55-.02c-.25,.36-.6,.6-.99,.75Zm.59-1.34c.03-.19,.05-.39,.06-.62l.46-2.62-.11,.16,.12-1.04c.11-.04,.32-.09,.59-.09,.04,0,.08,0,.11,0-.09,.5-.16,.97-.22,1.4-.17,1.14-.23,1.83-.26,2.23-.01,.14-.02,.24-.03,.32-.02,.13-.05,.26-.09,.37l-.62-.12Zm-2.2-.44l-.08-.02c-.21-.04-.69-.14-.5-1.36,.16-1.08,.27-1.84,.16-2.35,.2-.06,.37-.08,.49-.08,.2,0,.25,.03,.26,.04h0s.06,.12,0,.62l-.21,1.42c-.05,.41-.08,.99,.25,1.37,.09,.11,.21,.19,.34,.24-.18,.09-.35,.12-.49,.12h-.2Z"/><path class="f" d="M6.95,4.48c-.29,0-.83,.07-1.31,.45,.42,.21,.31,.93,.09,2.48-.24,1.53,.45,1.92,.97,2.02-.84,.04-1.7,.44-1.7,1.19,0,.66,.81,.9,1.82,.9,1.78,0,3.31-.69,3.57-2.38,.04-.31,.07-1.01,.29-2.54,.08-.57,.19-1.21,.31-1.9-.19-.11-.48-.17-.78-.17-.52,0-1.12,.14-1.16,.47l-.19,1.59c-.21,1.08-.49,1.66-.91,1.66-.29,0-.48-.23-.38-1.01l.21-1.42c.13-.93-.07-1.32-.83-1.32h0Zm1.63,4.13v.06c-.05,1.25-.55,1.92-1.28,1.92-.31,0-.54-.15-.54-.45,0-.17,.08-.39,.26-.68h.08c.44,0,1.02-.18,1.48-.84h0Z"/></g></g></g></svg>