<?xml version="1.0" encoding="UTF-8"?><svg xmlns="http://www.w3.org/2000/svg" viewBox="0 0 16 16"><defs><style>.e{fill:#4d2d7c;stroke:#4d2a7c;stroke-linecap:round;stroke-linejoin:round;stroke-width:.16px;}.f{fill:#e6ddee;}.g{fill:#e6dded;}</style></defs><g id="a"/><g id="b"/><g id="c"><g id="d"><g><path class="g" d="M1.88,9.69c-.47-.45-.74-1.05-.74-1.69s.26-1.24,.74-1.69L8.01,.47l6.1,5.82c.48,.46,.75,1.07,.75,1.71s-.26,1.26-.75,1.71l-6.1,5.82L1.88,9.69Z"/><path class="f" d="M8.01,.68l5.99,5.72c.45,.43,.7,1,.7,1.6s-.25,1.17-.7,1.6l-5.99,5.72L1.99,9.58c-.44-.42-.69-.98-.69-1.58s.24-1.16,.69-1.58L8.01,.68m0-.43L1.77,6.19c-1.05,1-1.05,2.61,0,3.61l6.23,5.94,6.21-5.92c1.06-1.01,1.06-2.65,0-3.65L8.01,.25h0Z"/></g><path class="e" d="M5,10.62c0-.75,.85-1.15,1.7-1.19-.52-.1-1.21-.49-.97-2.02,.23-1.55,.33-2.27-.09-2.48,.48-.38,1.02-.45,1.31-.45,.76,0,.96,.39,.83,1.32l-.21,1.42c-.1,.78,.09,1.01,.38,1.01,.42,0,.71-.58,.91-1.66l.19-1.59c.04-.33,.64-.47,1.16-.47,.3,0,.6,.06,.78,.17-.13,.69-.24,1.33-.31,1.9-.23,1.53-.25,2.23-.29,2.54-.25,1.69-1.78,2.38-3.57,2.38-1.01,0-1.82-.23-1.82-.9Zm2.29-.03c.74,0,1.23-.66,1.27-1.92v-.06c-.45,.66-1.03,.84-1.47,.84h-.08c-.19,.29-.26,.51-.26,.68,0,.3,.23,.45,.54,.45Z"/></g></g></svg>